<svg width="14" height="14" viewBox="0 0 14 14" fill="none" xmlns="http://www.w3.org/2000/svg">
<path d="M7.4375 4.00586C5.5625 4.00586 4.06836 5.5293 4.06836 7.375C4.06836 9.25 5.5625 10.7441 7.4375 10.7441C9.2832 10.7441 10.8066 9.25 10.8066 7.375C10.8066 5.5293 9.2832 4.00586 7.4375 4.00586ZM7.4375 9.57227C6.23633 9.57227 5.24023 8.60547 5.24023 7.375C5.24023 6.17383 6.20703 5.20703 7.4375 5.20703C8.63867 5.20703 9.60547 6.17383 9.60547 7.375C9.60547 8.60547 8.63867 9.57227 7.4375 9.57227ZM11.7148 3.88867C11.7148 3.44922 11.3633 3.09766 10.9238 3.09766C10.4844 3.09766 10.1328 3.44922 10.1328 3.88867C10.1328 4.32812 10.4844 4.67969 10.9238 4.67969C11.3633 4.67969 11.7148 4.32812 11.7148 3.88867ZM13.9414 4.67969C13.8828 3.625 13.6484 2.6875 12.8867 1.92578C12.125 1.16406 11.1875 0.929688 10.1328 0.871094C9.04883 0.8125 5.79688 0.8125 4.71289 0.871094C3.6582 0.929688 2.75 1.16406 1.95898 1.92578C1.19727 2.6875 0.962891 3.625 0.904297 4.67969C0.845703 5.76367 0.845703 9.01562 0.904297 10.0996C0.962891 11.1543 1.19727 12.0625 1.95898 12.8535C2.75 13.6152 3.6582 13.8496 4.71289 13.9082C5.79688 13.9668 9.04883 13.9668 10.1328 13.9082C11.1875 13.8496 12.125 13.6152 12.8867 12.8535C13.6484 12.0625 13.8828 11.1543 13.9414 10.0996C14 9.01562 14 5.76367 13.9414 4.67969ZM12.5352 11.2422C12.3301 11.8281 11.8613 12.2676 11.3047 12.502C10.4258 12.8535 8.375 12.7656 7.4375 12.7656C6.4707 12.7656 4.41992 12.8535 3.57031 12.502C2.98438 12.2676 2.54492 11.8281 2.31055 11.2422C1.95898 10.3926 2.04688 8.3418 2.04688 7.375C2.04688 6.4375 1.95898 4.38672 2.31055 3.50781C2.54492 2.95117 2.98438 2.51172 3.57031 2.27734C4.41992 1.92578 6.4707 2.01367 7.4375 2.01367C8.375 2.01367 10.4258 1.92578 11.3047 2.27734C11.8613 2.48242 12.3008 2.95117 12.5352 3.50781C12.8867 4.38672 12.7988 6.4375 12.7988 7.375C12.7988 8.3418 12.8867 10.3926 12.5352 11.2422Z" fill="#433840"/>
</svg>
